<?xml version="1.0" encoding="utf-8"?>
<!-- Generator: Adobe Illustrator 19.0.0, SVG Export Plug-In . SVG Version: 6.00 Build 0)  -->
<svg version="1.1" id="Layer_1" xmlns="http://www.w3.org/2000/svg" xmlns:xlink="http://www.w3.org/1999/xlink" x="0px" y="0px"
	 viewBox="0 0 209 64.4" style="enable-background:new 0 0 209 64.4;" xml:space="preserve">
<style type="text/css">
	.st0{fill:#FFD122;}

	.st1{fill:#000;}
	.st2{fill:none;stroke:#000000;stroke-width:3;stroke-linecap:square;stroke-miterlimit:10;}
	.omleining {
		  stroke-dasharray: 1000;
		  stroke-dashoffset: 1000;
		  animation: omleining 12s forwards;
		} 

@keyframes omleining {

     0%   {stroke-dashoffset: 1000;}
    25%  {stroke-dashoffset: 0;}
    50%  {stroke-dashoffset: 0;}
    75%  {stroke-dashoffset: 0;}
    100% {stroke-dashoffset: 0;}
}


    

}
</style>
<g id="XMLID_57_">
	
	<g id="XMLID_58_">
		<path id="XMLID_67_" d="M86.1,24l5.5,13.1h0.1L97.2,24h1.6v14.9h-1.2v-6.6l0.1-6.5l-0.1,0l-5.5,13.1h-0.9l-5.5-13.1l-0.1,0
			l0.1,6.5v6.6h-1.2V24H86.1z"/>
		<path id="XMLID_64_" d="M102.8,33.2c0-1.6,0.4-3,1.3-4c0.9-1,2.1-1.6,3.6-1.6c1.5,0,2.7,0.5,3.6,1.6c0.9,1,1.3,2.4,1.3,4v0.3
			c0,1.6-0.4,3-1.3,4c-0.9,1-2.1,1.6-3.6,1.6c-1.5,0-2.7-0.5-3.6-1.6c-0.9-1-1.3-2.4-1.3-4V33.2z M104,33.6c0,1.3,0.3,2.4,1,3.2
			s1.6,1.3,2.7,1.3c1.1,0,2-0.4,2.7-1.3c0.7-0.9,1-2,1-3.2v-0.3c0-1.3-0.3-2.3-1-3.2s-1.6-1.3-2.7-1.3s-2,0.4-2.7,1.3s-1,2-1,3.2
			V33.6z"/>
		<path id="XMLID_62_" d="M121.3,28.9l-0.9-0.1c-0.8,0-1.4,0.2-1.9,0.7c-0.5,0.4-0.8,1-1.1,1.8v7.7h-1.2V27.8h1.1l0.2,1.8v0.1
			c0.3-0.7,0.8-1.2,1.3-1.6s1.2-0.6,1.9-0.6c0.2,0,0.3,0,0.5,0c0.1,0,0.3,0,0.4,0.1L121.3,28.9z"/>
		<path id="XMLID_59_" d="M128.4,39.1c-1.4,0-2.5-0.5-3.5-1.5c-0.9-1-1.4-2.3-1.4-3.9v-0.6c0-1.6,0.5-2.9,1.4-3.9
			c0.9-1,2-1.6,3.3-1.6c1.4,0,2.4,0.4,3.2,1.3s1.2,2,1.2,3.4v1h-7.8v0.3c0,1.2,0.3,2.3,1,3.1s1.5,1.3,2.6,1.3c0.8,0,1.4-0.1,2-0.3
			c0.5-0.2,1-0.5,1.4-0.9l0.5,0.8c-0.4,0.4-0.9,0.8-1.6,1C130,39,129.2,39.1,128.4,39.1z M128.2,28.7c-0.9,0-1.7,0.3-2.3,1
			c-0.6,0.7-1,1.6-1.1,2.6l0,0.1h6.5v-0.3c0-1-0.3-1.8-0.9-2.4S129.2,28.7,128.2,28.7z"/>
	</g>
</g>
<path id="XMLID_102_" class="st2 omleining" d="M7.5,41.1C7.5,41.1,7.5,41,7.5,41.1l0-33.7h200v50H23.4"/>
<path id="XMLID_1_" class="st2" d="M7.5,43.7"/>
</svg>
