<?xml version="1.0" encoding="utf-8"?>
<!-- Generator: Adobe Illustrator 19.0.0, SVG Export Plug-In . SVG Version: 6.00 Build 0)  -->
<svg version="1.1" id="Layer_1" xmlns="http://www.w3.org/2000/svg" xmlns:xlink="http://www.w3.org/1999/xlink" x="0px" y="0px"
	 viewBox="0 0 31.4 31.6" style="enable-background:new 0 0 31.4 31.6;" xml:space="preserve">
<style type="text/css">
	.st0{fill:#FFD122;}
	.st1{fill:#FFFFFF;}
	.st2{fill:none;stroke:#000000;stroke-width:3;stroke-linecap:square;stroke-miterlimit:10;}
</style>
<g id="XMLID_57_">
	<g id="XMLID_69_">
		<path id="XMLID_214_" class="st0" d="M15.8,27.2C9.4,27.2,4.3,22,4.3,15.7S9.4,4.2,15.8,4.2s11.5,5.2,11.5,11.5
			S22.1,27.2,15.8,27.2z"/>
		<path id="XMLID_211_" class="st1" d="M15.8,8.2c4.1,0,7.5,3.4,7.5,7.5s-3.4,7.5-7.5,7.5c-4.1,0-7.5-3.4-7.5-7.5S11.6,8.2,15.8,8.2
			 M15.8,0.2c-8.5,0-15.5,7-15.5,15.5s7,15.5,15.5,15.5s15.5-7,15.5-15.5S24.3,0.2,15.8,0.2L15.8,0.2z"/>
	</g>
</g>
<path id="XMLID_1_" class="st2" d="M11.5,5.3"/>
</svg>
