<?xml version="1.0" standalone="no"?>
<!DOCTYPE svg PUBLIC "-//W3C//DTD SVG 20010904//EN"
 "http://www.w3.org/TR/2001/REC-SVG-20010904/DTD/svg10.dtd">
<svg version="1.0" xmlns="http://www.w3.org/2000/svg"
 width="1128.000000pt" height="1128.000000pt" viewBox="0 0 1128.000000 1128.000000"
 preserveAspectRatio="xMidYMid meet">
<metadata>
Created by potrace 1.11, written by Peter Selinger 2001-2013
</metadata>
<g transform="translate(0.000000,1128.000000) scale(0.100000,-0.100000)"
fill="#000000" stroke="none">
<path d="M1355 9745 c-133 -29 -241 -80 -344 -160 -146 -112 -251 -280 -291
-464 -19 -83 -20 -171 -20 -2793 l0 -2708 92 50 c228 121 440 178 688 184 285
7 551 -61 797 -204 29 -16 54 -26 56 -22 2 4 3 753 3 1665 -1 913 2 1661 5
1663 3 2 248 -240 544 -537 334 -336 565 -559 607 -589 127 -90 283 -140 443
-144 175 -4 333 41 480 137 39 26 393 372 1018 996 526 526 961 957 965 959 4
1 503 -494 1110 -1101 l1103 -1103 -1353 -1355 c-1035 -1035 -1365 -1371
-1401 -1426 -96 -146 -139 -300 -132 -478 5 -142 24 -216 85 -341 221 -448
794 -588 1205 -296 97 69 3388 3365 3439 3445 48 73 81 149 108 245 31 110 31
294 -1 411 -26 99 -76 203 -134 281 -65 88 -3482 3499 -3557 3552 -147 102
-281 145 -461 146 -91 0 -128 -3 -214 -22 -86 -18 -231 -92 -313 -159 -15 -12
-454 -449 -976 -970 l-950 -948 -965 964 c-531 530 -987 978 -1012 995 -140
93 -290 139 -459 140 -58 1 -132 -5 -165 -13z"/>
<path d="M1365 3145 c-389 -76 -661 -404 -663 -799 -2 -402 277 -738 674 -811
64 -12 245 -10 304 4 132 31 244 82 330 149 214 168 328 407 322 672 -4 180
-51 320 -158 465 -155 211 -373 324 -634 330 -63 1 -142 -3 -175 -10z"/>
</g>
</svg>
